# xmcd
#
# Track frame offsets:
#	150
#	7907
#	23780
#	36725
#	48410
#	62422
#	82887
#	97485
#	110675
#	126577
#	140755
#	156212
#	171125
#	185500
#
# Disc length: 2617
#
# Revision: 3
# Processed by: cddbd v1.5.1PL0 Copyright (c) Steve Scherf et al.
# Submitted via: Audio-CD-Archiv 2.10.446
# Normalized: r2:TDELIM( - )
#
DISCID=c60a370e
DTITLE=Various Artist - Das Country-Weihnachtsfest
DYEAR=1900
DGENRE=country
TTITLE0=Jonny Hill - Leise rieselt der Schnee
TTITLE1=Linda Feller - Winterzeit - Kinderzeit
TTITLE2=Frank Braun and Country Green - Advent - Stunden der Stille
TTITLE3=Tex Haper - Hey Fahrer komm rein
TTITLE4=Greyhounds - Das Weihnachtsfest
TTITLE5=Dagmar - Weihnachten für Deutschland
TTITLE6=Tom Astor - Du wunderschöne Weihnachzeit
TTITLE7=Joe Hodkins Boss Band - Die Einsamkeit ist neben dir
TTITLE8=Greyhounds - Moderne Weihnachtsmänner
TTITLE9=Frank Baum and Country Gree - Schöner Fremder laß mich nicht allein
TTITLE10=Mike Hermann and Bozze Company - Weihnachten im Truck
TTITLE11=Tom Astor - Fröhliche Weihnachten
TTITLE12=Mike Tauer - Der helle Stern
TTITLE13=Hanna and Daana - Du wunderschöner Tannenbaum
EXTD=
EXTT0=
EXTT1=
EXTT2=
EXTT3=
EXTT4=
EXTT5=
EXTT6=
EXTT7=
EXTT8=
EXTT9=
EXTT10=
EXTT11=
EXTT12=
EXTT13=
PLAYORDER=
